<svg width="180" height="33" viewBox="0 0 180 33" fill="none" xmlns="http://www.w3.org/2000/svg">
<path d="M52.708 21.9446L58.4025 6.94458H60.2775L53.6802 24.2363H51.8052L45.208 6.94458H47.083L52.708 21.9446Z" fill="#2B2B35"/>
<path d="M64.3748 22.7085H73.6109V24.2363H62.6387V6.94458H73.3331V8.47235H64.3748V14.3751H72.7081V15.9029H64.3748V22.7085Z" fill="#2B2B35"/>
<path d="M89.3053 21.6668L89.3748 6.94458H91.1109V24.2363H88.8887L78.8192 9.37514H78.7498V24.2363H77.0137V6.94458H79.2359L89.3053 21.6668Z" fill="#2B2B35"/>
<path d="M107.917 21.6668L107.986 6.94458H109.722V24.2363H107.5L97.4306 9.37514H97.3611V24.2363H95.625V6.94458H97.8472L107.917 21.6668Z" fill="#2B2B35"/>
<path d="M127.43 10.0695C126.805 9.44451 126.111 8.95839 125.277 8.61117C124.444 8.26394 123.472 8.05562 122.43 8.05562C121.319 8.05562 120.347 8.26395 119.444 8.68062C118.541 9.09728 117.777 9.65283 117.222 10.3473C116.597 11.0417 116.111 11.8056 115.764 12.7778C115.416 13.6806 115.277 14.6528 115.277 15.6251C115.277 16.5973 115.416 17.5695 115.764 18.4723C116.111 19.3751 116.597 20.2084 117.222 20.8334C117.847 21.5278 118.611 22.0834 119.444 22.5001C120.347 22.9167 121.319 23.1251 122.43 23.1251C123.402 23.1251 124.305 22.9862 125.139 22.7778C125.972 22.5695 126.597 22.2917 127.083 21.9445V16.6667H123.055V15.1389H128.819V22.9167C127.847 23.4723 126.875 23.889 125.764 24.1667C124.652 24.4445 123.541 24.5834 122.361 24.5834C121.041 24.5834 119.861 24.3751 118.75 23.889C117.639 23.4028 116.666 22.7778 115.902 22.0139C115.139 21.2501 114.514 20.2779 114.027 19.1667C113.611 18.0556 113.333 16.8751 113.333 15.5556C113.333 14.2362 113.541 13.0556 114.027 11.9445C114.514 10.8334 115.139 9.86118 115.902 9.09729C116.736 8.26395 117.639 7.63894 118.75 7.22228C119.861 6.80561 121.041 6.52783 122.291 6.52783C123.68 6.52783 124.861 6.73616 125.902 7.15283C126.944 7.5695 127.777 8.12505 128.541 8.88894L127.43 10.0695Z" fill="#2B2B35"/>
<path d="M133.264 24.2363H131.319L138.819 6.94458H140.555L147.986 24.2363H146.042L144.167 19.7224H135.208L133.264 24.2363ZM135.764 18.0557H143.403L139.583 8.88902L135.764 18.0557Z" fill="#2B2B35"/>
<path d="M163.126 10.0695C162.501 9.44451 161.806 8.95839 160.973 8.61117C160.139 8.26394 159.167 8.05562 158.126 8.05562C157.014 8.05562 156.042 8.26395 155.139 8.68062C154.237 9.09728 153.473 9.65283 152.917 10.3473C152.292 11.0417 151.806 11.8056 151.459 12.7778C151.112 13.6806 150.973 14.6528 150.973 15.6251C150.973 16.5973 151.112 17.5695 151.459 18.4723C151.806 19.3751 152.292 20.2084 152.917 20.8334C153.542 21.5278 154.306 22.0834 155.139 22.5001C156.042 22.9167 157.014 23.1251 158.126 23.1251C159.098 23.1251 160.001 22.9862 160.834 22.7778C161.667 22.5695 162.292 22.2917 162.778 21.9445V16.6667H158.751V15.1389H164.514V22.9167C163.542 23.4723 162.57 23.889 161.459 24.1667C160.348 24.4445 159.237 24.5834 158.056 24.5834C156.737 24.5834 155.556 24.3751 154.445 23.889C153.334 23.4028 152.362 22.7778 151.598 22.0139C150.834 21.2501 150.209 20.2779 149.723 19.1667C149.306 18.0556 149.028 16.8751 149.028 15.5556C149.028 14.2362 149.237 13.0556 149.723 11.9445C150.209 10.8334 150.834 9.86118 151.598 9.09729C152.431 8.26395 153.334 7.63894 154.445 7.22228C155.556 6.80561 156.737 6.52783 157.987 6.52783C159.376 6.52783 160.556 6.73616 161.598 7.15283C162.639 7.5695 163.473 8.12505 164.237 8.88894L163.126 10.0695Z" fill="#2B2B35"/>
<path d="M170.764 22.7085H180.001V24.2363H169.028V6.94458H179.723V8.47235H170.764V14.3751H179.098V15.9029H170.764V22.7085Z" fill="#2B2B35"/>
<path d="M16.2896 0C7.27834 0 0 7.27834 0 16.2896C0 25.3009 7.27834 32.5792 16.2896 32.5792C25.3009 32.5792 32.5792 25.3009 32.5792 16.2896C32.5792 7.34766 25.3009 0.0693175 16.2896 0ZM16.2896 2.0102C18.6464 2.0102 21.0032 2.63406 23.0827 3.74314L16.2203 10.6056L9.14991 3.95109C11.3681 2.63405 13.7942 2.0102 16.2896 2.0102ZM16.2896 30.569C8.38742 30.569 2.01021 24.1918 2.01021 16.2896C2.01021 11.9226 4.02041 7.76355 7.48629 5.06017L14.8339 11.9919L16.2896 13.4476L24.885 4.85223C31.1929 9.56582 32.5099 18.5078 27.7963 24.8157C25.0929 28.4895 20.7953 30.569 16.2896 30.569Z" fill="#2B2B35"/>
</svg>
